<svg width="197" height="197" viewBox="0 0 197 197" fill="none" xmlns="http://www.w3.org/2000/svg">
<g clip-path="url(#clip0_36_109)">
<rect width="197" height="197" fill="white"/>
<rect x="214" y="213" width="230" height="230" rx="54.7619" transform="rotate(180 214 213)" fill="url(#paint0_radial_36_109)"/>
<path d="M97.7679 60.4214C105.415 60.4214 111.614 54.2223 111.614 46.5754C111.614 38.9285 105.415 32.7295 97.7679 32.7295C90.1209 32.7295 83.9219 38.9285 83.9219 46.5754C83.9219 54.2223 90.1209 60.4214 97.7679 60.4214Z" fill="white"/>
<path d="M97.7679 112.354C105.415 112.354 111.614 106.155 111.614 98.5081C111.614 90.8611 105.415 84.6621 97.7679 84.6621C90.1209 84.6621 83.9219 90.8611 83.9219 98.5081C83.9219 106.155 90.1209 112.354 97.7679 112.354Z" fill="white"/>
<path d="M45.8462 112.354C53.4932 112.354 59.6922 106.155 59.6922 98.5081C59.6922 90.8611 53.4932 84.6621 45.8462 84.6621C38.1993 84.6621 32.0002 90.8611 32.0002 98.5081C32.0002 106.155 38.1993 112.354 45.8462 112.354Z" fill="white"/>
<path d="M153.154 112.354C160.801 112.354 167 106.155 167 98.5081C167 90.8611 160.801 84.6621 153.154 84.6621C145.507 84.6621 139.308 90.8611 139.308 98.5081C139.308 106.155 145.507 112.354 153.154 112.354Z" fill="white"/>
<path d="M134.114 67.8816C138.894 67.8816 142.768 64.0072 142.768 59.2279C142.768 54.4486 138.894 50.5742 134.114 50.5742C129.335 50.5742 125.46 54.4486 125.46 59.2279C125.46 64.0072 129.335 67.8816 134.114 67.8816Z" fill="white"/>
<path d="M134.114 143.502C138.894 143.502 142.768 139.627 142.768 134.848C142.768 130.069 138.894 126.194 134.114 126.194C129.335 126.194 125.46 130.069 125.46 134.848C125.46 139.627 129.335 143.502 134.114 143.502Z" fill="white"/>
<path d="M61.4206 143.502C66.1999 143.502 70.0743 139.627 70.0743 134.848C70.0743 130.069 66.1999 126.194 61.4206 126.194C56.6412 126.194 52.7668 130.069 52.7668 134.848C52.7668 139.627 56.6412 143.502 61.4206 143.502Z" fill="white"/>
<path d="M61.4206 67.8816C66.1999 67.8816 70.0743 64.0072 70.0743 59.2279C70.0743 54.4486 66.1999 50.5742 61.4206 50.5742C56.6412 50.5742 52.7668 54.4486 52.7668 59.2279C52.7668 64.0072 56.6412 67.8816 61.4206 67.8816Z" fill="white"/>
<path d="M97.7679 164.264C105.415 164.264 111.614 158.065 111.614 150.418C111.614 142.771 105.415 136.572 97.7679 136.572C90.1209 136.572 83.9219 142.771 83.9219 150.418C83.9219 158.065 90.1209 164.264 97.7679 164.264Z" fill="white"/>
</g>
<defs>
<radialGradient id="paint0_radial_36_109" cx="0" cy="0" r="1" gradientUnits="userSpaceOnUse" gradientTransform="translate(320.786 257.722) rotate(66.3599) scale(279.962)">
<stop stop-color="#E8481C"/>
<stop offset="1" stop-color="#FC8F72"/>
</radialGradient>
<clipPath id="clip0_36_109">
<rect width="197" height="197" fill="white"/>
</clipPath>
</defs>
</svg>
